<!--?xml version="1.0" standalone="no"?-->
              <svg id="sw-js-blob-svg" viewBox="0 0 100 100" xmlns="http://www.w3.org/2000/svg" version="1.1">
                    <defs> 
                        <linearGradient id="sw-gradient" x1="0" x2="1" y1="1" y2="0">
                            <stop id="stop1" stop-color="rgba(248, 117, 55, 1)" offset="0%"></stop>
                            <stop id="stop2" stop-color="rgba(251, 168, 31, 1)" offset="100%"></stop>
                        </linearGradient>
                    </defs>
                <path fill="url(#sw-gradient)" d="M21.3,-25C29.4,-18.7,38.9,-13.6,41.8,-6C44.8,1.6,41.3,11.7,35.4,19C29.5,26.4,21.2,30.9,12.4,34.3C3.5,37.6,-5.9,39.7,-15.2,38C-24.6,36.2,-33.9,30.6,-39.3,22.2C-44.6,13.8,-46,2.7,-43.2,-6.7C-40.4,-16.1,-33.4,-23.8,-25.5,-30.1C-17.6,-36.5,-8.8,-41.4,-1.1,-40.1C6.6,-38.8,13.3,-31.3,21.3,-25Z" width="100%" height="100%" transform="translate(50 50)" stroke-width="0" style="transition: 0.3s;"></path>
              </svg>