<!--?xml version="1.0" standalone="no"?-->
              <svg id="sw-js-blob-svg" viewBox="0 0 100 100" xmlns="http://www.w3.org/2000/svg" version="1.1">
                    <defs> 
                        <linearGradient id="sw-gradient" x1="0" x2="1" y1="1" y2="0">
                            <stop id="stop1" stop-color="rgba(139.855, 55, 248, 1)" offset="0%"></stop>
                            <stop id="stop2" stop-color="rgba(242.549, 0, 230.567, 1)" offset="100%"></stop>
                        </linearGradient>
                    </defs>
                <path fill="url(#sw-gradient)" d="M13.8,-16.9C17.2,-13.6,18.8,-8.6,17.5,-4.8C16.1,-0.9,11.9,1.7,10.2,7.2C8.6,12.7,9.7,21.1,6.8,24.7C4,28.3,-2.8,27.2,-5.9,23.1C-9.1,19,-8.7,11.9,-13.3,6.5C-17.9,1,-27.5,-2.7,-29.1,-7.2C-30.8,-11.6,-24.5,-16.7,-18.4,-19.6C-12.2,-22.5,-6.1,-23.1,-0.5,-22.6C5.2,-22,10.4,-20.3,13.8,-16.9Z" width="100%" height="100%" transform="translate(50 50)" stroke-width="0" style="transition: 0.3s;"></path>
              </svg>