<?xml version="1.0" standalone="no"?>
<svg viewBox="0 0 200 200" xmlns="http://www.w3.org/2000/svg">
  <path fill="#FF0066" d="M36.2,-61.4C48.4,-55.6,60.9,-49,65.9,-38.6C71,-28.2,68.7,-14.1,70.2,0.9C71.7,15.8,77,31.7,71.2,40.8C65.4,50,48.5,52.4,34.8,55.3C21.1,58.2,10.5,61.6,-2.3,65.6C-15.1,69.6,-30.2,74.1,-42.1,70.1C-54,66.1,-62.6,53.6,-70.2,40.5C-77.8,27.4,-84.4,13.7,-83.4,0.6C-82.3,-12.4,-73.5,-24.9,-66.3,-38.7C-59,-52.4,-53.4,-67.5,-42.6,-74.3C-31.8,-81,-15.9,-79.3,-2,-75.9C12,-72.5,23.9,-67.3,36.2,-61.4Z" transform="translate(100 100)" />
</svg>
